<svg id="Capa_1" enable-background="new 0 0 508.633 508.633" height="512" viewBox="0 0 508.633 508.633" width="512" xmlns="http://www.w3.org/2000/svg"><g><path d="m508.633 254.316-49.534-54.871 15.463-72.287-70.334-22.753-22.754-70.333-72.286 15.462-54.872-49.534-54.871 49.534-72.287-15.462-22.752 70.333-70.333 22.752 15.462 72.287-49.535 54.872 49.534 54.871-15.462 72.286 70.333 22.754 22.753 70.334 72.287-15.463 54.871 49.534 54.871-49.534 72.286 15.463 22.754-70.334 70.334-22.754-15.463-72.286zm-319.317-110c24.813 0 45 20.187 45 45s-20.187 45-45 45-45-20.187-45-45 20.187-45 45-45zm-14.393 210.607-21.213-21.213 180-180 21.213 21.213zm144.393 9.393c-24.814 0-45-20.186-45-45s20.186-45 45-45 45 20.186 45 45-20.186 45-45 45z"/><circle cx="319.316" cy="319.316" r="15"/><circle cx="189.316" cy="189.316" r="15"/></g></svg>